<svg width="315" height="97" viewBox="0 0 315 97" fill="none" xmlns="http://www.w3.org/2000/svg" xmlns:xlink="http://www.w3.org/1999/xlink">
<path d="M306.556 48.5L158.521 94.3838L8.54492 48.5L158.521 2.61523L306.556 48.5Z" fill="url(#pattern0_4_185)" stroke="#3FA558" stroke-width="5"/>
<defs>
<pattern id="pattern0_4_185" patternUnits="userSpaceOnUse" viewBox="343 -3358 975 1024" width="309.52380952380952%" height="1055.6701030927834%" patternContentUnits="objectBoundingBox">
<g clip-path="url(#clip0_4_185)">
<rect width="975" height="1024" transform="translate(343 -3358)" fill="#3FA558"/>
<rect x="343" y="-3358" width="8" height="1024" fill="#F8F8F8"/>
<rect x="356" y="-3358" width="8" height="1024" fill="#F8F8F8"/>
<rect x="369" y="-3358" width="8" height="1024" fill="#F8F8F8"/>
<rect x="382" y="-3358" width="8" height="1024" fill="#F8F8F8"/>
<rect x="395" y="-3358" width="8" height="1024" fill="#F8F8F8"/>
<rect x="408" y="-3358" width="8" height="1024" fill="#F8F8F8"/>
<rect x="421" y="-3358" width="8" height="1024" fill="#F8F8F8"/>
<rect x="434" y="-3358" width="8" height="1024" fill="#F8F8F8"/>
<rect x="447" y="-3358" width="8" height="1024" fill="#F8F8F8"/>
<rect x="460" y="-3358" width="8" height="1024" fill="#F8F8F8"/>
<rect x="473" y="-3358" width="8" height="1024" fill="#F8F8F8"/>
<rect x="486" y="-3358" width="8" height="1024" fill="#F8F8F8"/>
<rect x="499" y="-3358" width="8" height="1024" fill="#F8F8F8"/>
<rect x="512" y="-3358" width="8" height="1024" fill="#F8F8F8"/>
<rect x="525" y="-3358" width="8" height="1024" fill="#F8F8F8"/>
<rect x="538" y="-3358" width="8" height="1024" fill="#F8F8F8"/>
<rect x="551" y="-3358" width="8" height="1024" fill="#F8F8F8"/>
<rect x="564" y="-3358" width="8" height="1024" fill="#F8F8F8"/>
<rect x="577" y="-3358" width="8" height="1024" fill="#F8F8F8"/>
<rect x="590" y="-3358" width="8" height="1024" fill="#F8F8F8"/>
<rect x="603" y="-3358" width="8" height="1024" fill="#F8F8F8"/>
<rect x="616" y="-3358" width="8" height="1024" fill="#F8F8F8"/>
<rect x="629" y="-3358" width="8" height="1024" fill="#F8F8F8"/>
<rect x="642" y="-3358" width="8" height="1024" fill="#F8F8F8"/>
<rect x="668" y="-3358" width="8" height="1024" fill="#F8F8F8"/>
<rect x="655" y="-3358" width="8" height="1024" fill="#F8F8F8"/>
<rect x="681" y="-3358" width="8" height="1024" fill="#F8F8F8"/>
<rect x="694" y="-3358" width="8" height="1024" fill="#F8F8F8"/>
<rect x="707" y="-3358" width="8" height="1024" fill="#F8F8F8"/>
<rect x="720" y="-3358" width="8" height="1024" fill="#F8F8F8"/>
<rect x="733" y="-3358" width="8" height="1024" fill="#F8F8F8"/>
<rect x="746" y="-3358" width="8" height="1024" fill="#F8F8F8"/>
<rect x="759" y="-3358" width="8" height="1024" fill="#F8F8F8"/>
<rect x="772" y="-3358" width="8" height="1024" fill="#F8F8F8"/>
<rect x="785" y="-3358" width="8" height="1024" fill="#F8F8F8"/>
<rect x="798" y="-3358" width="8" height="1024" fill="#F8F8F8"/>
<rect x="811" y="-3358" width="8" height="1024" fill="#F8F8F8"/>
<rect x="824" y="-3358" width="8" height="1024" fill="#F8F8F8"/>
<rect x="837" y="-3358" width="8" height="1024" fill="#F8F8F8"/>
<rect x="850" y="-3358" width="8" height="1024" fill="#F8F8F8"/>
<rect x="863" y="-3358" width="8" height="1024" fill="#F8F8F8"/>
<rect x="876" y="-3358" width="8" height="1024" fill="#F8F8F8"/>
<rect x="889" y="-3358" width="8" height="1024" fill="#F8F8F8"/>
<rect x="902" y="-3358" width="8" height="1024" fill="#F8F8F8"/>
<rect x="915" y="-3358" width="8" height="1024" fill="#F8F8F8"/>
<rect x="928" y="-3358" width="8" height="1024" fill="#F8F8F8"/>
<rect x="941" y="-3358" width="8" height="1024" fill="#F8F8F8"/>
<rect x="954" y="-3358" width="8" height="1024" fill="#F8F8F8"/>
<rect x="967" y="-3358" width="8" height="1024" fill="#F8F8F8"/>
</g>
</pattern><clipPath id="clip0_4_185">
<rect width="975" height="1024" fill="white" transform="translate(343 -3358)"/>
</clipPath>
</defs>
</svg>
