<svg width="315" height="97" viewBox="0 0 315 97" fill="none" xmlns="http://www.w3.org/2000/svg" xmlns:xlink="http://www.w3.org/1999/xlink">
<path d="M306.556 48.5L158.521 94.3838L8.54492 48.5L158.521 2.61523L306.556 48.5Z" fill="url(#pattern0_4_184)" stroke="#800080" stroke-width="5"/>
<defs>
<pattern id="pattern0_4_184" patternUnits="userSpaceOnUse" viewBox="1440 -3173 975 1024" width="309.52380952380952%" height="1055.6701030927834%" patternContentUnits="objectBoundingBox">
<g clip-path="url(#clip0_4_184)">
<rect width="975" height="1024" transform="translate(1440 -3173)" fill="#800080"/>
<rect x="1440" y="-3173" width="8" height="1024" fill="#F8F8F8"/>
<rect x="1453" y="-3173" width="8" height="1024" fill="#F8F8F8"/>
<rect x="1466" y="-3173" width="8" height="1024" fill="#F8F8F8"/>
<rect x="1479" y="-3173" width="8" height="1024" fill="#F8F8F8"/>
<rect x="1492" y="-3173" width="8" height="1024" fill="#F8F8F8"/>
<rect x="1505" y="-3173" width="8" height="1024" fill="#F8F8F8"/>
<rect x="1518" y="-3173" width="8" height="1024" fill="#F8F8F8"/>
<rect x="1531" y="-3173" width="8" height="1024" fill="#F8F8F8"/>
<rect x="1544" y="-3173" width="8" height="1024" fill="#F8F8F8"/>
<rect x="1557" y="-3173" width="8" height="1024" fill="#F8F8F8"/>
<rect x="1570" y="-3173" width="8" height="1024" fill="#F8F8F8"/>
<rect x="1583" y="-3173" width="8" height="1024" fill="#F8F8F8"/>
<rect x="1596" y="-3173" width="8" height="1024" fill="#F8F8F8"/>
<rect x="1609" y="-3173" width="8" height="1024" fill="#F8F8F8"/>
<rect x="1622" y="-3173" width="8" height="1024" fill="#F8F8F8"/>
<rect x="1635" y="-3173" width="8" height="1024" fill="#F8F8F8"/>
<rect x="1648" y="-3173" width="8" height="1024" fill="#F8F8F8"/>
<rect x="1661" y="-3173" width="8" height="1024" fill="#F8F8F8"/>
<rect x="1674" y="-3173" width="8" height="1024" fill="#F8F8F8"/>
<rect x="1687" y="-3173" width="8" height="1024" fill="#F8F8F8"/>
<rect x="1700" y="-3173" width="8" height="1024" fill="#F8F8F8"/>
<rect x="1713" y="-3173" width="8" height="1024" fill="#F8F8F8"/>
<rect x="1726" y="-3173" width="8" height="1024" fill="#F8F8F8"/>
<rect x="1739" y="-3173" width="8" height="1024" fill="#F8F8F8"/>
<rect x="1765" y="-3173" width="8" height="1024" fill="#F8F8F8"/>
<rect x="1752" y="-3173" width="8" height="1024" fill="#F8F8F8"/>
<rect x="1778" y="-3173" width="8" height="1024" fill="#F8F8F8"/>
<rect x="1791" y="-3173" width="8" height="1024" fill="#F8F8F8"/>
<rect x="1804" y="-3173" width="8" height="1024" fill="#F8F8F8"/>
<rect x="1817" y="-3173" width="8" height="1024" fill="#F8F8F8"/>
<rect x="1830" y="-3173" width="8" height="1024" fill="#F8F8F8"/>
<rect x="1843" y="-3173" width="8" height="1024" fill="#F8F8F8"/>
<rect x="1856" y="-3173" width="8" height="1024" fill="#F8F8F8"/>
<rect x="1869" y="-3173" width="8" height="1024" fill="#F8F8F8"/>
<rect x="1882" y="-3173" width="8" height="1024" fill="#F8F8F8"/>
<rect x="1895" y="-3173" width="8" height="1024" fill="#F8F8F8"/>
<rect x="1908" y="-3173" width="8" height="1024" fill="#F8F8F8"/>
<rect x="1921" y="-3173" width="8" height="1024" fill="#F8F8F8"/>
<rect x="1934" y="-3173" width="8" height="1024" fill="#F8F8F8"/>
<rect x="1947" y="-3173" width="8" height="1024" fill="#F8F8F8"/>
<rect x="1960" y="-3173" width="8" height="1024" fill="#F8F8F8"/>
<rect x="1973" y="-3173" width="8" height="1024" fill="#F8F8F8"/>
<rect x="1986" y="-3173" width="8" height="1024" fill="#F8F8F8"/>
<rect x="1999" y="-3173" width="8" height="1024" fill="#F8F8F8"/>
<rect x="2012" y="-3173" width="8" height="1024" fill="#F8F8F8"/>
<rect x="2025" y="-3173" width="8" height="1024" fill="#F8F8F8"/>
<rect x="2038" y="-3173" width="8" height="1024" fill="#F8F8F8"/>
<rect x="2051" y="-3173" width="8" height="1024" fill="#F8F8F8"/>
<rect x="2064" y="-3173" width="8" height="1024" fill="#F8F8F8"/>
</g>
</pattern><clipPath id="clip0_4_184">
<rect width="975" height="1024" fill="white" transform="translate(1440 -3173)"/>
</clipPath>
</defs>
</svg>
