<svg width="303" height="90" viewBox="0 0 303 90" fill="none" xmlns="http://www.w3.org/2000/svg" xmlns:xlink="http://www.w3.org/1999/xlink">
<rect x="2.5" y="2.5" width="298" height="85" rx="42.5" fill="url(#pattern0_4_175)" stroke="#3FA558" stroke-width="5"/>
<defs>
<pattern id="pattern0_4_175" patternUnits="userSpaceOnUse" viewBox="343 -2586 975 1024" width="321.78217821782181%" height="1137.7777777777778%" patternContentUnits="objectBoundingBox">
<g clip-path="url(#clip0_4_175)">
<rect width="975" height="1024" transform="translate(343 -2586)" fill="#3FA558"/>
<rect x="343" y="-2586" width="8" height="1024" fill="#F8F8F8"/>
<rect x="356" y="-2586" width="8" height="1024" fill="#F8F8F8"/>
<rect x="369" y="-2586" width="8" height="1024" fill="#F8F8F8"/>
<rect x="382" y="-2586" width="8" height="1024" fill="#F8F8F8"/>
<rect x="395" y="-2586" width="8" height="1024" fill="#F8F8F8"/>
<rect x="408" y="-2586" width="8" height="1024" fill="#F8F8F8"/>
<rect x="421" y="-2586" width="8" height="1024" fill="#F8F8F8"/>
<rect x="434" y="-2586" width="8" height="1024" fill="#F8F8F8"/>
<rect x="447" y="-2586" width="8" height="1024" fill="#F8F8F8"/>
<rect x="460" y="-2586" width="8" height="1024" fill="#F8F8F8"/>
<rect x="473" y="-2586" width="8" height="1024" fill="#F8F8F8"/>
<rect x="486" y="-2586" width="8" height="1024" fill="#F8F8F8"/>
<rect x="499" y="-2586" width="8" height="1024" fill="#F8F8F8"/>
<rect x="512" y="-2586" width="8" height="1024" fill="#F8F8F8"/>
<rect x="525" y="-2586" width="8" height="1024" fill="#F8F8F8"/>
<rect x="538" y="-2586" width="8" height="1024" fill="#F8F8F8"/>
<rect x="551" y="-2586" width="8" height="1024" fill="#F8F8F8"/>
<rect x="564" y="-2586" width="8" height="1024" fill="#F8F8F8"/>
<rect x="577" y="-2586" width="8" height="1024" fill="#F8F8F8"/>
<rect x="590" y="-2586" width="8" height="1024" fill="#F8F8F8"/>
<rect x="603" y="-2586" width="8" height="1024" fill="#F8F8F8"/>
<rect x="616" y="-2586" width="8" height="1024" fill="#F8F8F8"/>
<rect x="629" y="-2586" width="8" height="1024" fill="#F8F8F8"/>
<rect x="642" y="-2586" width="8" height="1024" fill="#F8F8F8"/>
<rect x="668" y="-2586" width="8" height="1024" fill="#F8F8F8"/>
<rect x="655" y="-2586" width="8" height="1024" fill="#F8F8F8"/>
<rect x="681" y="-2586" width="8" height="1024" fill="#F8F8F8"/>
<rect x="694" y="-2586" width="8" height="1024" fill="#F8F8F8"/>
<rect x="707" y="-2586" width="8" height="1024" fill="#F8F8F8"/>
<rect x="720" y="-2586" width="8" height="1024" fill="#F8F8F8"/>
<rect x="733" y="-2586" width="8" height="1024" fill="#F8F8F8"/>
<rect x="746" y="-2586" width="8" height="1024" fill="#F8F8F8"/>
<rect x="759" y="-2586" width="8" height="1024" fill="#F8F8F8"/>
<rect x="772" y="-2586" width="8" height="1024" fill="#F8F8F8"/>
<rect x="785" y="-2586" width="8" height="1024" fill="#F8F8F8"/>
<rect x="798" y="-2586" width="8" height="1024" fill="#F8F8F8"/>
<rect x="811" y="-2586" width="8" height="1024" fill="#F8F8F8"/>
<rect x="824" y="-2586" width="8" height="1024" fill="#F8F8F8"/>
<rect x="837" y="-2586" width="8" height="1024" fill="#F8F8F8"/>
<rect x="850" y="-2586" width="8" height="1024" fill="#F8F8F8"/>
<rect x="863" y="-2586" width="8" height="1024" fill="#F8F8F8"/>
<rect x="876" y="-2586" width="8" height="1024" fill="#F8F8F8"/>
<rect x="889" y="-2586" width="8" height="1024" fill="#F8F8F8"/>
<rect x="902" y="-2586" width="8" height="1024" fill="#F8F8F8"/>
<rect x="915" y="-2586" width="8" height="1024" fill="#F8F8F8"/>
<rect x="928" y="-2586" width="8" height="1024" fill="#F8F8F8"/>
<rect x="941" y="-2586" width="8" height="1024" fill="#F8F8F8"/>
<rect x="954" y="-2586" width="8" height="1024" fill="#F8F8F8"/>
<rect x="967" y="-2586" width="8" height="1024" fill="#F8F8F8"/>
</g>
</pattern><clipPath id="clip0_4_175">
<rect width="975" height="1024" fill="white" transform="translate(343 -2586)"/>
</clipPath>
</defs>
</svg>
