<svg width="270" height="90" viewBox="0 0 270 90" fill="none" xmlns="http://www.w3.org/2000/svg" xmlns:xlink="http://www.w3.org/1999/xlink">
<rect x="2.5" y="2.5" width="265" height="85" rx="42.5" fill="url(#pattern0_4_175)" stroke="#3FA558" stroke-width="5"/>
<defs>
<pattern id="pattern0_4_175" patternUnits="userSpaceOnUse" viewBox="321 -2586 975 1024" width="361.11111111111114%" height="1137.7777777777778%" patternContentUnits="objectBoundingBox">
<g clip-path="url(#clip0_4_175)">
<rect width="975" height="1024" transform="translate(321 -2586)" fill="#3FA558"/>
<rect x="321" y="-2586" width="8" height="1024" fill="#F8F8F8"/>
<rect x="334" y="-2586" width="8" height="1024" fill="#F8F8F8"/>
<rect x="347" y="-2586" width="8" height="1024" fill="#F8F8F8"/>
<rect x="360" y="-2586" width="8" height="1024" fill="#F8F8F8"/>
<rect x="373" y="-2586" width="8" height="1024" fill="#F8F8F8"/>
<rect x="386" y="-2586" width="8" height="1024" fill="#F8F8F8"/>
<rect x="399" y="-2586" width="8" height="1024" fill="#F8F8F8"/>
<rect x="412" y="-2586" width="8" height="1024" fill="#F8F8F8"/>
<rect x="425" y="-2586" width="8" height="1024" fill="#F8F8F8"/>
<rect x="438" y="-2586" width="8" height="1024" fill="#F8F8F8"/>
<rect x="451" y="-2586" width="8" height="1024" fill="#F8F8F8"/>
<rect x="464" y="-2586" width="8" height="1024" fill="#F8F8F8"/>
<rect x="477" y="-2586" width="8" height="1024" fill="#F8F8F8"/>
<rect x="490" y="-2586" width="8" height="1024" fill="#F8F8F8"/>
<rect x="503" y="-2586" width="8" height="1024" fill="#F8F8F8"/>
<rect x="516" y="-2586" width="8" height="1024" fill="#F8F8F8"/>
<rect x="529" y="-2586" width="8" height="1024" fill="#F8F8F8"/>
<rect x="542" y="-2586" width="8" height="1024" fill="#F8F8F8"/>
<rect x="555" y="-2586" width="8" height="1024" fill="#F8F8F8"/>
<rect x="568" y="-2586" width="8" height="1024" fill="#F8F8F8"/>
<rect x="581" y="-2586" width="8" height="1024" fill="#F8F8F8"/>
<rect x="594" y="-2586" width="8" height="1024" fill="#F8F8F8"/>
<rect x="607" y="-2586" width="8" height="1024" fill="#F8F8F8"/>
<rect x="620" y="-2586" width="8" height="1024" fill="#F8F8F8"/>
<rect x="646" y="-2586" width="8" height="1024" fill="#F8F8F8"/>
<rect x="633" y="-2586" width="8" height="1024" fill="#F8F8F8"/>
<rect x="659" y="-2586" width="8" height="1024" fill="#F8F8F8"/>
<rect x="672" y="-2586" width="8" height="1024" fill="#F8F8F8"/>
<rect x="685" y="-2586" width="8" height="1024" fill="#F8F8F8"/>
<rect x="698" y="-2586" width="8" height="1024" fill="#F8F8F8"/>
<rect x="711" y="-2586" width="8" height="1024" fill="#F8F8F8"/>
<rect x="724" y="-2586" width="8" height="1024" fill="#F8F8F8"/>
<rect x="737" y="-2586" width="8" height="1024" fill="#F8F8F8"/>
<rect x="750" y="-2586" width="8" height="1024" fill="#F8F8F8"/>
<rect x="763" y="-2586" width="8" height="1024" fill="#F8F8F8"/>
<rect x="776" y="-2586" width="8" height="1024" fill="#F8F8F8"/>
<rect x="789" y="-2586" width="8" height="1024" fill="#F8F8F8"/>
<rect x="802" y="-2586" width="8" height="1024" fill="#F8F8F8"/>
<rect x="815" y="-2586" width="8" height="1024" fill="#F8F8F8"/>
<rect x="828" y="-2586" width="8" height="1024" fill="#F8F8F8"/>
<rect x="841" y="-2586" width="8" height="1024" fill="#F8F8F8"/>
<rect x="854" y="-2586" width="8" height="1024" fill="#F8F8F8"/>
<rect x="867" y="-2586" width="8" height="1024" fill="#F8F8F8"/>
<rect x="880" y="-2586" width="8" height="1024" fill="#F8F8F8"/>
<rect x="893" y="-2586" width="8" height="1024" fill="#F8F8F8"/>
<rect x="906" y="-2586" width="8" height="1024" fill="#F8F8F8"/>
<rect x="919" y="-2586" width="8" height="1024" fill="#F8F8F8"/>
<rect x="932" y="-2586" width="8" height="1024" fill="#F8F8F8"/>
<rect x="945" y="-2586" width="8" height="1024" fill="#F8F8F8"/>
</g>
</pattern><clipPath id="clip0_4_175">
<rect width="975" height="1024" fill="white" transform="translate(321 -2586)"/>
</clipPath>
</defs>
</svg>
