<svg width="303" height="90" viewBox="0 0 303 90" fill="none" xmlns="http://www.w3.org/2000/svg" xmlns:xlink="http://www.w3.org/1999/xlink">
<rect x="2.5" y="2.5" width="298" height="85" rx="42.5" fill="url(#pattern0_4_174)" stroke="#800080" stroke-width="5"/>
<defs>
<pattern id="pattern0_4_174" patternUnits="userSpaceOnUse" viewBox="1440 -2372 975 1024" width="321.78217821782181%" height="1137.7777777777778%" patternContentUnits="objectBoundingBox">
<g clip-path="url(#clip0_4_174)">
<rect width="975" height="1024" transform="translate(1440 -2372)" fill="#800080"/>
<rect x="1440" y="-2372" width="8" height="1024" fill="#F8F8F8"/>
<rect x="1453" y="-2372" width="8" height="1024" fill="#F8F8F8"/>
<rect x="1466" y="-2372" width="8" height="1024" fill="#F8F8F8"/>
<rect x="1479" y="-2372" width="8" height="1024" fill="#F8F8F8"/>
<rect x="1492" y="-2372" width="8" height="1024" fill="#F8F8F8"/>
<rect x="1505" y="-2372" width="8" height="1024" fill="#F8F8F8"/>
<rect x="1518" y="-2372" width="8" height="1024" fill="#F8F8F8"/>
<rect x="1531" y="-2372" width="8" height="1024" fill="#F8F8F8"/>
<rect x="1544" y="-2372" width="8" height="1024" fill="#F8F8F8"/>
<rect x="1557" y="-2372" width="8" height="1024" fill="#F8F8F8"/>
<rect x="1570" y="-2372" width="8" height="1024" fill="#F8F8F8"/>
<rect x="1583" y="-2372" width="8" height="1024" fill="#F8F8F8"/>
<rect x="1596" y="-2372" width="8" height="1024" fill="#F8F8F8"/>
<rect x="1609" y="-2372" width="8" height="1024" fill="#F8F8F8"/>
<rect x="1622" y="-2372" width="8" height="1024" fill="#F8F8F8"/>
<rect x="1635" y="-2372" width="8" height="1024" fill="#F8F8F8"/>
<rect x="1648" y="-2372" width="8" height="1024" fill="#F8F8F8"/>
<rect x="1661" y="-2372" width="8" height="1024" fill="#F8F8F8"/>
<rect x="1674" y="-2372" width="8" height="1024" fill="#F8F8F8"/>
<rect x="1687" y="-2372" width="8" height="1024" fill="#F8F8F8"/>
<rect x="1700" y="-2372" width="8" height="1024" fill="#F8F8F8"/>
<rect x="1713" y="-2372" width="8" height="1024" fill="#F8F8F8"/>
<rect x="1726" y="-2372" width="8" height="1024" fill="#F8F8F8"/>
<rect x="1739" y="-2372" width="8" height="1024" fill="#F8F8F8"/>
<rect x="1765" y="-2372" width="8" height="1024" fill="#F8F8F8"/>
<rect x="1752" y="-2372" width="8" height="1024" fill="#F8F8F8"/>
<rect x="1778" y="-2372" width="8" height="1024" fill="#F8F8F8"/>
<rect x="1791" y="-2372" width="8" height="1024" fill="#F8F8F8"/>
<rect x="1804" y="-2372" width="8" height="1024" fill="#F8F8F8"/>
<rect x="1817" y="-2372" width="8" height="1024" fill="#F8F8F8"/>
<rect x="1830" y="-2372" width="8" height="1024" fill="#F8F8F8"/>
<rect x="1843" y="-2372" width="8" height="1024" fill="#F8F8F8"/>
<rect x="1856" y="-2372" width="8" height="1024" fill="#F8F8F8"/>
<rect x="1869" y="-2372" width="8" height="1024" fill="#F8F8F8"/>
<rect x="1882" y="-2372" width="8" height="1024" fill="#F8F8F8"/>
<rect x="1895" y="-2372" width="8" height="1024" fill="#F8F8F8"/>
<rect x="1908" y="-2372" width="8" height="1024" fill="#F8F8F8"/>
<rect x="1921" y="-2372" width="8" height="1024" fill="#F8F8F8"/>
<rect x="1934" y="-2372" width="8" height="1024" fill="#F8F8F8"/>
<rect x="1947" y="-2372" width="8" height="1024" fill="#F8F8F8"/>
<rect x="1960" y="-2372" width="8" height="1024" fill="#F8F8F8"/>
<rect x="1973" y="-2372" width="8" height="1024" fill="#F8F8F8"/>
<rect x="1986" y="-2372" width="8" height="1024" fill="#F8F8F8"/>
<rect x="1999" y="-2372" width="8" height="1024" fill="#F8F8F8"/>
<rect x="2012" y="-2372" width="8" height="1024" fill="#F8F8F8"/>
<rect x="2025" y="-2372" width="8" height="1024" fill="#F8F8F8"/>
<rect x="2038" y="-2372" width="8" height="1024" fill="#F8F8F8"/>
<rect x="2051" y="-2372" width="8" height="1024" fill="#F8F8F8"/>
<rect x="2064" y="-2372" width="8" height="1024" fill="#F8F8F8"/>
</g>
</pattern><clipPath id="clip0_4_174">
<rect width="975" height="1024" fill="white" transform="translate(1440 -2372)"/>
</clipPath>
</defs>
</svg>
