<svg width="270" height="90" viewBox="0 0 270 90" fill="none" xmlns="http://www.w3.org/2000/svg" xmlns:xlink="http://www.w3.org/1999/xlink">
<rect x="2.5" y="2.5" width="265" height="85" rx="42.5" fill="url(#pattern0_4_174)" stroke="#800080" stroke-width="5"/>
<defs>
<pattern id="pattern0_4_174" patternUnits="userSpaceOnUse" viewBox="1418 -2372 975 1024" width="361.11111111111114%" height="1137.7777777777778%" patternContentUnits="objectBoundingBox">
<g clip-path="url(#clip0_4_174)">
<rect width="975" height="1024" transform="translate(1418 -2372)" fill="#800080"/>
<rect x="1418" y="-2372" width="8" height="1024" fill="#F8F8F8"/>
<rect x="1431" y="-2372" width="8" height="1024" fill="#F8F8F8"/>
<rect x="1444" y="-2372" width="8" height="1024" fill="#F8F8F8"/>
<rect x="1457" y="-2372" width="8" height="1024" fill="#F8F8F8"/>
<rect x="1470" y="-2372" width="8" height="1024" fill="#F8F8F8"/>
<rect x="1483" y="-2372" width="8" height="1024" fill="#F8F8F8"/>
<rect x="1496" y="-2372" width="8" height="1024" fill="#F8F8F8"/>
<rect x="1509" y="-2372" width="8" height="1024" fill="#F8F8F8"/>
<rect x="1522" y="-2372" width="8" height="1024" fill="#F8F8F8"/>
<rect x="1535" y="-2372" width="8" height="1024" fill="#F8F8F8"/>
<rect x="1548" y="-2372" width="8" height="1024" fill="#F8F8F8"/>
<rect x="1561" y="-2372" width="8" height="1024" fill="#F8F8F8"/>
<rect x="1574" y="-2372" width="8" height="1024" fill="#F8F8F8"/>
<rect x="1587" y="-2372" width="8" height="1024" fill="#F8F8F8"/>
<rect x="1600" y="-2372" width="8" height="1024" fill="#F8F8F8"/>
<rect x="1613" y="-2372" width="8" height="1024" fill="#F8F8F8"/>
<rect x="1626" y="-2372" width="8" height="1024" fill="#F8F8F8"/>
<rect x="1639" y="-2372" width="8" height="1024" fill="#F8F8F8"/>
<rect x="1652" y="-2372" width="8" height="1024" fill="#F8F8F8"/>
<rect x="1665" y="-2372" width="8" height="1024" fill="#F8F8F8"/>
<rect x="1678" y="-2372" width="8" height="1024" fill="#F8F8F8"/>
<rect x="1691" y="-2372" width="8" height="1024" fill="#F8F8F8"/>
<rect x="1704" y="-2372" width="8" height="1024" fill="#F8F8F8"/>
<rect x="1717" y="-2372" width="8" height="1024" fill="#F8F8F8"/>
<rect x="1743" y="-2372" width="8" height="1024" fill="#F8F8F8"/>
<rect x="1730" y="-2372" width="8" height="1024" fill="#F8F8F8"/>
<rect x="1756" y="-2372" width="8" height="1024" fill="#F8F8F8"/>
<rect x="1769" y="-2372" width="8" height="1024" fill="#F8F8F8"/>
<rect x="1782" y="-2372" width="8" height="1024" fill="#F8F8F8"/>
<rect x="1795" y="-2372" width="8" height="1024" fill="#F8F8F8"/>
<rect x="1808" y="-2372" width="8" height="1024" fill="#F8F8F8"/>
<rect x="1821" y="-2372" width="8" height="1024" fill="#F8F8F8"/>
<rect x="1834" y="-2372" width="8" height="1024" fill="#F8F8F8"/>
<rect x="1847" y="-2372" width="8" height="1024" fill="#F8F8F8"/>
<rect x="1860" y="-2372" width="8" height="1024" fill="#F8F8F8"/>
<rect x="1873" y="-2372" width="8" height="1024" fill="#F8F8F8"/>
<rect x="1886" y="-2372" width="8" height="1024" fill="#F8F8F8"/>
<rect x="1899" y="-2372" width="8" height="1024" fill="#F8F8F8"/>
<rect x="1912" y="-2372" width="8" height="1024" fill="#F8F8F8"/>
<rect x="1925" y="-2372" width="8" height="1024" fill="#F8F8F8"/>
<rect x="1938" y="-2372" width="8" height="1024" fill="#F8F8F8"/>
<rect x="1951" y="-2372" width="8" height="1024" fill="#F8F8F8"/>
<rect x="1964" y="-2372" width="8" height="1024" fill="#F8F8F8"/>
<rect x="1977" y="-2372" width="8" height="1024" fill="#F8F8F8"/>
<rect x="1990" y="-2372" width="8" height="1024" fill="#F8F8F8"/>
<rect x="2003" y="-2372" width="8" height="1024" fill="#F8F8F8"/>
<rect x="2016" y="-2372" width="8" height="1024" fill="#F8F8F8"/>
<rect x="2029" y="-2372" width="8" height="1024" fill="#F8F8F8"/>
<rect x="2042" y="-2372" width="8" height="1024" fill="#F8F8F8"/>
</g>
</pattern><clipPath id="clip0_4_174">
<rect width="975" height="1024" fill="white" transform="translate(1418 -2372)"/>
</clipPath>
</defs>
</svg>
