<svg width="270" height="90" viewBox="0 0 270 90" fill="none" xmlns="http://www.w3.org/2000/svg" xmlns:xlink="http://www.w3.org/1999/xlink">
<rect x="2.5" y="2.5" width="265" height="85" rx="42.5" fill="url(#pattern0_4_173)" stroke="#DC143C" stroke-width="5"/>
<defs>
<pattern id="pattern0_4_173" patternUnits="userSpaceOnUse" viewBox="1418 -1006 776 1024" width="287.40740740740745%" height="1137.7777777777778%" patternContentUnits="objectBoundingBox">
<g clip-path="url(#clip0_4_173)">
<rect width="776" height="1024" transform="translate(1418 -1006)" fill="#DC143C"/>
<rect x="1418" y="-1006" width="8" height="1024" fill="#F8F8F8"/>
<rect x="1431" y="-1006" width="8" height="1024" fill="#F8F8F8"/>
<rect x="1444" y="-1006" width="8" height="1024" fill="#F8F8F8"/>
<rect x="1457" y="-1006" width="8" height="1024" fill="#F8F8F8"/>
<rect x="1470" y="-1006" width="8" height="1024" fill="#F8F8F8"/>
<rect x="1483" y="-1006" width="8" height="1024" fill="#F8F8F8"/>
<rect x="1496" y="-1006" width="8" height="1024" fill="#F8F8F8"/>
<rect x="1509" y="-1006" width="8" height="1024" fill="#F8F8F8"/>
<rect x="1522" y="-1006" width="8" height="1024" fill="#F8F8F8"/>
<rect x="1535" y="-1006" width="8" height="1024" fill="#F8F8F8"/>
<rect x="1548" y="-1006" width="8" height="1024" fill="#F8F8F8"/>
<rect x="1561" y="-1006" width="8" height="1024" fill="#F8F8F8"/>
<rect x="1574" y="-1006" width="8" height="1024" fill="#F8F8F8"/>
<rect x="1587" y="-1006" width="8" height="1024" fill="#F8F8F8"/>
<rect x="1600" y="-1006" width="8" height="1024" fill="#F8F8F8"/>
<rect x="1613" y="-1006" width="8" height="1024" fill="#F8F8F8"/>
<rect x="1626" y="-1006" width="8" height="1024" fill="#F8F8F8"/>
<rect x="1639" y="-1006" width="8" height="1024" fill="#F8F8F8"/>
<rect x="1652" y="-1006" width="8" height="1024" fill="#F8F8F8"/>
<rect x="1665" y="-1006" width="8" height="1024" fill="#F8F8F8"/>
<rect x="1678" y="-1006" width="8" height="1024" fill="#F8F8F8"/>
<rect x="1691" y="-1006" width="8" height="1024" fill="#F8F8F8"/>
<rect x="1704" y="-1006" width="8" height="1024" fill="#F8F8F8"/>
<rect x="1717" y="-1006" width="8" height="1024" fill="#F8F8F8"/>
<rect x="1743" y="-1006" width="8" height="1024" fill="#F8F8F8"/>
<rect x="1730" y="-1006" width="8" height="1024" fill="#F8F8F8"/>
<rect x="1756" y="-1006" width="8" height="1024" fill="#F8F8F8"/>
<rect x="1769" y="-1006" width="8" height="1024" fill="#F8F8F8"/>
<rect x="1782" y="-1006" width="8" height="1024" fill="#F8F8F8"/>
<rect x="1795" y="-1006" width="8" height="1024" fill="#F8F8F8"/>
<rect x="1808" y="-1006" width="8" height="1024" fill="#F8F8F8"/>
<rect x="1821" y="-1006" width="8" height="1024" fill="#F8F8F8"/>
<rect x="1834" y="-1006" width="8" height="1024" fill="#F8F8F8"/>
<rect x="1847" y="-1006" width="8" height="1024" fill="#F8F8F8"/>
<rect x="1860" y="-1006" width="8" height="1024" fill="#F8F8F8"/>
<rect x="1873" y="-1006" width="8" height="1024" fill="#F8F8F8"/>
<rect x="1886" y="-1006" width="8" height="1024" fill="#F8F8F8"/>
<rect x="1899" y="-1006" width="8" height="1024" fill="#F8F8F8"/>
<rect x="1912" y="-1006" width="8" height="1024" fill="#F8F8F8"/>
<rect x="1925" y="-1006" width="8" height="1024" fill="#F8F8F8"/>
<rect x="1938" y="-1006" width="8" height="1024" fill="#F8F8F8"/>
<rect x="1951" y="-1006" width="8" height="1024" fill="#F8F8F8"/>
<rect x="1964" y="-1006" width="8" height="1024" fill="#F8F8F8"/>
<rect x="1977" y="-1006" width="8" height="1024" fill="#F8F8F8"/>
<rect x="1990" y="-1006" width="8" height="1024" fill="#F8F8F8"/>
<rect x="2003" y="-1006" width="8" height="1024" fill="#F8F8F8"/>
<rect x="2016" y="-1006" width="8" height="1024" fill="#F8F8F8"/>
<rect x="2029" y="-1006" width="8" height="1024" fill="#F8F8F8"/>
<rect x="2042" y="-1006" width="8" height="1024" fill="#F8F8F8"/>
</g>
</pattern><clipPath id="clip0_4_173">
<rect width="776" height="1024" fill="white" transform="translate(1418 -1006)"/>
</clipPath>
</defs>
</svg>
