<svg width="303" height="90" viewBox="0 0 303 90" fill="none" xmlns="http://www.w3.org/2000/svg" xmlns:xlink="http://www.w3.org/1999/xlink">
<rect x="2.5" y="2.5" width="298" height="85" rx="42.5" fill="url(#pattern0_4_173)" stroke="#DC143C" stroke-width="5"/>
<defs>
<pattern id="pattern0_4_173" patternUnits="userSpaceOnUse" viewBox="1440 -1006 776 1024" width="256.1056105610561%" height="1137.7777777777778%" patternContentUnits="objectBoundingBox">
<g clip-path="url(#clip0_4_173)">
<rect width="776" height="1024" transform="translate(1440 -1006)" fill="#DC143C"/>
<rect x="1440" y="-1006" width="8" height="1024" fill="#F8F8F8"/>
<rect x="1453" y="-1006" width="8" height="1024" fill="#F8F8F8"/>
<rect x="1466" y="-1006" width="8" height="1024" fill="#F8F8F8"/>
<rect x="1479" y="-1006" width="8" height="1024" fill="#F8F8F8"/>
<rect x="1492" y="-1006" width="8" height="1024" fill="#F8F8F8"/>
<rect x="1505" y="-1006" width="8" height="1024" fill="#F8F8F8"/>
<rect x="1518" y="-1006" width="8" height="1024" fill="#F8F8F8"/>
<rect x="1531" y="-1006" width="8" height="1024" fill="#F8F8F8"/>
<rect x="1544" y="-1006" width="8" height="1024" fill="#F8F8F8"/>
<rect x="1557" y="-1006" width="8" height="1024" fill="#F8F8F8"/>
<rect x="1570" y="-1006" width="8" height="1024" fill="#F8F8F8"/>
<rect x="1583" y="-1006" width="8" height="1024" fill="#F8F8F8"/>
<rect x="1596" y="-1006" width="8" height="1024" fill="#F8F8F8"/>
<rect x="1609" y="-1006" width="8" height="1024" fill="#F8F8F8"/>
<rect x="1622" y="-1006" width="8" height="1024" fill="#F8F8F8"/>
<rect x="1635" y="-1006" width="8" height="1024" fill="#F8F8F8"/>
<rect x="1648" y="-1006" width="8" height="1024" fill="#F8F8F8"/>
<rect x="1661" y="-1006" width="8" height="1024" fill="#F8F8F8"/>
<rect x="1674" y="-1006" width="8" height="1024" fill="#F8F8F8"/>
<rect x="1687" y="-1006" width="8" height="1024" fill="#F8F8F8"/>
<rect x="1700" y="-1006" width="8" height="1024" fill="#F8F8F8"/>
<rect x="1713" y="-1006" width="8" height="1024" fill="#F8F8F8"/>
<rect x="1726" y="-1006" width="8" height="1024" fill="#F8F8F8"/>
<rect x="1739" y="-1006" width="8" height="1024" fill="#F8F8F8"/>
<rect x="1765" y="-1006" width="8" height="1024" fill="#F8F8F8"/>
<rect x="1752" y="-1006" width="8" height="1024" fill="#F8F8F8"/>
<rect x="1778" y="-1006" width="8" height="1024" fill="#F8F8F8"/>
<rect x="1791" y="-1006" width="8" height="1024" fill="#F8F8F8"/>
<rect x="1804" y="-1006" width="8" height="1024" fill="#F8F8F8"/>
<rect x="1817" y="-1006" width="8" height="1024" fill="#F8F8F8"/>
<rect x="1830" y="-1006" width="8" height="1024" fill="#F8F8F8"/>
<rect x="1843" y="-1006" width="8" height="1024" fill="#F8F8F8"/>
<rect x="1856" y="-1006" width="8" height="1024" fill="#F8F8F8"/>
<rect x="1869" y="-1006" width="8" height="1024" fill="#F8F8F8"/>
<rect x="1882" y="-1006" width="8" height="1024" fill="#F8F8F8"/>
<rect x="1895" y="-1006" width="8" height="1024" fill="#F8F8F8"/>
<rect x="1908" y="-1006" width="8" height="1024" fill="#F8F8F8"/>
<rect x="1921" y="-1006" width="8" height="1024" fill="#F8F8F8"/>
<rect x="1934" y="-1006" width="8" height="1024" fill="#F8F8F8"/>
<rect x="1947" y="-1006" width="8" height="1024" fill="#F8F8F8"/>
<rect x="1960" y="-1006" width="8" height="1024" fill="#F8F8F8"/>
<rect x="1973" y="-1006" width="8" height="1024" fill="#F8F8F8"/>
<rect x="1986" y="-1006" width="8" height="1024" fill="#F8F8F8"/>
<rect x="1999" y="-1006" width="8" height="1024" fill="#F8F8F8"/>
<rect x="2012" y="-1006" width="8" height="1024" fill="#F8F8F8"/>
<rect x="2025" y="-1006" width="8" height="1024" fill="#F8F8F8"/>
<rect x="2038" y="-1006" width="8" height="1024" fill="#F8F8F8"/>
<rect x="2051" y="-1006" width="8" height="1024" fill="#F8F8F8"/>
<rect x="2064" y="-1006" width="8" height="1024" fill="#F8F8F8"/>
</g>
</pattern><clipPath id="clip0_4_173">
<rect width="776" height="1024" fill="white" transform="translate(1440 -1006)"/>
</clipPath>
</defs>
</svg>
