<svg width="303" height="140" viewBox="0 0 303 140" fill="none" xmlns="http://www.w3.org/2000/svg" xmlns:xlink="http://www.w3.org/1999/xlink">
<path d="M281.716 2.51562C282.541 2.61675 283.951 3.25525 286.245 5.49805C288.486 7.68922 291.278 11.1168 294.885 16.1758C300.252 23.7033 301.591 33.2531 299.671 43.6025C297.749 53.9631 292.579 64.9507 285.199 75.0244C270.366 95.2712 247.183 111.093 225.016 111.093H69.9277C55.2101 111.093 44.7658 113.755 37.1523 117.533C29.5208 121.321 24.8923 126.153 21.7109 130.225C20.2016 132.156 18.8535 134.149 17.9395 135.379C16.859 136.833 16.2945 137.344 15.9873 137.49C15.9849 137.491 15.9826 137.492 15.9805 137.493C15.9145 137.475 15.721 137.405 15.3789 137.153C14.4948 136.502 13.2202 135.103 11.3418 132.455C-2.99656 112.241 1.47957 87.6448 14.9805 67.6982C28.5281 47.6829 50.5858 33.2568 69.9277 33.2568H225.016C240.706 33.2568 251.505 29.6043 259.294 24.627C267.05 19.6704 271.636 13.5097 275.002 8.93848C276.735 6.58463 278.007 4.85138 279.225 3.70703C280.379 2.6216 281.093 2.43936 281.716 2.51562Z" fill="url(#pattern0_4_63)" stroke="#3FA558" stroke-width="5"/>
<defs>
<pattern id="pattern0_4_63" patternUnits="userSpaceOnUse" viewBox="343 -1690 975 1024" width="321.78217821782181%" height="731.42857142857144%" patternContentUnits="objectBoundingBox">
<g clip-path="url(#clip0_4_63)">
<rect width="975" height="1024" transform="translate(343 -1690)" fill="#3FA558"/>
<rect x="343" y="-1690" width="8" height="1024" fill="#F8F8F8"/>
<rect x="356" y="-1690" width="8" height="1024" fill="#F8F8F8"/>
<rect x="369" y="-1690" width="8" height="1024" fill="#F8F8F8"/>
<rect x="382" y="-1690" width="8" height="1024" fill="#F8F8F8"/>
<rect x="395" y="-1690" width="8" height="1024" fill="#F8F8F8"/>
<rect x="408" y="-1690" width="8" height="1024" fill="#F8F8F8"/>
<rect x="421" y="-1690" width="8" height="1024" fill="#F8F8F8"/>
<rect x="434" y="-1690" width="8" height="1024" fill="#F8F8F8"/>
<rect x="447" y="-1690" width="8" height="1024" fill="#F8F8F8"/>
<rect x="460" y="-1690" width="8" height="1024" fill="#F8F8F8"/>
<rect x="473" y="-1690" width="8" height="1024" fill="#F8F8F8"/>
<rect x="486" y="-1690" width="8" height="1024" fill="#F8F8F8"/>
<rect x="499" y="-1690" width="8" height="1024" fill="#F8F8F8"/>
<rect x="512" y="-1690" width="8" height="1024" fill="#F8F8F8"/>
<rect x="525" y="-1690" width="8" height="1024" fill="#F8F8F8"/>
<rect x="538" y="-1690" width="8" height="1024" fill="#F8F8F8"/>
<rect x="551" y="-1690" width="8" height="1024" fill="#F8F8F8"/>
<rect x="564" y="-1690" width="8" height="1024" fill="#F8F8F8"/>
<rect x="577" y="-1690" width="8" height="1024" fill="#F8F8F8"/>
<rect x="590" y="-1690" width="8" height="1024" fill="#F8F8F8"/>
<rect x="603" y="-1690" width="8" height="1024" fill="#F8F8F8"/>
<rect x="616" y="-1690" width="8" height="1024" fill="#F8F8F8"/>
<rect x="629" y="-1690" width="8" height="1024" fill="#F8F8F8"/>
<rect x="642" y="-1690" width="8" height="1024" fill="#F8F8F8"/>
<rect x="668" y="-1690" width="8" height="1024" fill="#F8F8F8"/>
<rect x="655" y="-1690" width="8" height="1024" fill="#F8F8F8"/>
<rect x="681" y="-1690" width="8" height="1024" fill="#F8F8F8"/>
<rect x="694" y="-1690" width="8" height="1024" fill="#F8F8F8"/>
<rect x="707" y="-1690" width="8" height="1024" fill="#F8F8F8"/>
<rect x="720" y="-1690" width="8" height="1024" fill="#F8F8F8"/>
<rect x="733" y="-1690" width="8" height="1024" fill="#F8F8F8"/>
<rect x="746" y="-1690" width="8" height="1024" fill="#F8F8F8"/>
<rect x="759" y="-1690" width="8" height="1024" fill="#F8F8F8"/>
<rect x="772" y="-1690" width="8" height="1024" fill="#F8F8F8"/>
<rect x="785" y="-1690" width="8" height="1024" fill="#F8F8F8"/>
<rect x="798" y="-1690" width="8" height="1024" fill="#F8F8F8"/>
<rect x="811" y="-1690" width="8" height="1024" fill="#F8F8F8"/>
<rect x="824" y="-1690" width="8" height="1024" fill="#F8F8F8"/>
<rect x="837" y="-1690" width="8" height="1024" fill="#F8F8F8"/>
<rect x="850" y="-1690" width="8" height="1024" fill="#F8F8F8"/>
<rect x="863" y="-1690" width="8" height="1024" fill="#F8F8F8"/>
<rect x="876" y="-1690" width="8" height="1024" fill="#F8F8F8"/>
<rect x="889" y="-1690" width="8" height="1024" fill="#F8F8F8"/>
<rect x="902" y="-1690" width="8" height="1024" fill="#F8F8F8"/>
<rect x="915" y="-1690" width="8" height="1024" fill="#F8F8F8"/>
<rect x="928" y="-1690" width="8" height="1024" fill="#F8F8F8"/>
<rect x="941" y="-1690" width="8" height="1024" fill="#F8F8F8"/>
<rect x="954" y="-1690" width="8" height="1024" fill="#F8F8F8"/>
<rect x="967" y="-1690" width="8" height="1024" fill="#F8F8F8"/>
</g>
</pattern><clipPath id="clip0_4_63">
<rect width="975" height="1024" fill="white" transform="translate(343 -1690)"/>
</clipPath>
</defs>
</svg>
