<svg width="303" height="140" viewBox="0 0 303 140" fill="none" xmlns="http://www.w3.org/2000/svg">
<path d="M281.538 5.03906C281.857 5.15851 282.789 5.61474 284.498 7.28613C286.579 9.32062 289.268 12.6041 292.85 17.627C297.717 24.4532 299.047 33.2594 297.213 43.1465C295.374 53.0558 290.396 63.7009 283.183 73.5469C268.61 93.4379 246.087 108.593 225.016 108.593H69.9277C54.9062 108.593 44.0662 111.311 36.041 115.294C27.9793 119.295 23.0759 124.416 19.7402 128.686C18.2352 130.612 16.7213 132.826 15.9326 133.888C15.8799 133.959 15.8271 134.025 15.7783 134.089C15.1881 133.428 14.4008 132.447 13.3809 131.009C-0.132945 111.957 3.88504 88.551 17.0508 69.0996C30.3098 49.5106 51.6872 35.7568 69.9277 35.7568H225.016C241.118 35.7568 252.397 32.0006 260.64 26.7334C268.817 21.5077 273.634 15.0118 277.015 10.4209C278.806 7.98845 279.926 6.47962 280.938 5.52832C281.225 5.25832 281.42 5.11403 281.538 5.03906Z" stroke="#DC143C" stroke-width="10"/>
</svg>
